<svg xmlns="http://www.w3.org/2000/svg" width="256" height="256" viewBox="0 0 256 256">
  <g fill="#2496ED">
    <rect x="66" y="112" width="28" height="26" rx="3"/>
    <rect x="98" y="112" width="28" height="26" rx="3"/>
    <rect x="130" y="112" width="28" height="26" rx="3"/>
    <rect x="162" y="112" width="28" height="26" rx="3"/>
    <rect x="98" y="82" width="28" height="26" rx="3"/>
    <rect x="130" y="82" width="28" height="26" rx="3"/>
    <rect x="162" y="82" width="28" height="26" rx="3"/>
    <rect x="130" y="52" width="28" height="26" rx="3"/>
    <path d="M20 146h216c2 18-2 34-14 46-14 14-36 22-66 22-38 0-70-10-92-30-14-12-22-24-24-38z"/>
    <path d="M232 128c11-9 21-8 24 3-5 12-15 18-24 14z"/>
  </g>
</svg>
